HIERARCHY
ROOT Hips
{
	OFFSET 0.000000 0.000000 0.000000
	CHANNELS 6 Xposition Yposition Zposition Xrotation Zrotation Yrotation
	JOINT Spine
	{
		OFFSET 0.000000 0.000000 4.452840
		CHANNELS 3 Xrotation Zrotation Yrotation
		JOINT Spine1
		{
			OFFSET 0.000000 -0.773230 4.385190
			CHANNELS 3 Xrotation Zrotation Yrotation
			JOINT Spine2
			{
				OFFSET 0.000000 -0.388090 4.435890
				CHANNELS 3 Xrotation Zrotation Yrotation
				JOINT Spine3
				{
					OFFSET 0.000000 -0.000000 4.452840
					CHANNELS 3 Xrotation Zrotation Yrotation
					JOINT Neck
					{
						OFFSET -0.000000 0.572510 5.725080
						CHANNELS 3 Xrotation Zrotation Yrotation
						JOINT Neck1
						{
							OFFSET -0.000000 0.143690 1.642400
							CHANNELS 3 Xrotation Zrotation Yrotation
							JOINT Head
							{
								OFFSET -0.000000 0.286290 1.623630
								CHANNELS 3 Xrotation Zrotation Yrotation
								End Site
								{
									OFFSET 0.000000 -0.000000 3.549160
								}
							}
						}
					}
					JOINT RightShoulder
					{
						OFFSET 0.000000 -0.000000 4.007550
						CHANNELS 3 Yrotation Zrotation Xrotation
						JOINT RightArm
						{
							OFFSET 7.258120 0.000000 0.000000
							CHANNELS 3 Xrotation Zrotation Yrotation
							JOINT RightForeArm
							{
								OFFSET 11.281260 0.000000 0.000000
								CHANNELS 3 Zrotation Yrotation Xrotation
								JOINT RightHand
								{
									OFFSET 8.656280 0.000000 0.000000
									CHANNELS 3 Xrotation Zrotation Yrotation
									End Site
									{
										OFFSET 4.378610 -0.042100 0.000000
									}
								}
							}
						}
					}
					JOINT LeftShoulder
					{
						OFFSET 0.000000 -0.000000 4.007550
						CHANNELS 3 Yrotation Zrotation Xrotation
						JOINT LeftArm
						{
							OFFSET -7.258120 -0.000000 0.000000
							CHANNELS 3 Xrotation Zrotation Yrotation
							JOINT LeftForeArm
							{
								OFFSET -11.281260 -0.000000 0.000000
								CHANNELS 3 Zrotation Yrotation Xrotation
								JOINT LeftHand
								{
									OFFSET -8.656280 -0.000000 0.000000
									CHANNELS 3 Xrotation Zrotation Yrotation
									End Site
									{
										OFFSET -4.378610 -0.042100 0.000000
									}
								}
							}
						}
					}
				}
			}
		}
	}
	JOINT RightUpLeg
	{
		OFFSET 3.944550 0.000000 0.000000
		CHANNELS 3 Xrotation Zrotation Yrotation
		JOINT RightLeg
		{
			OFFSET 0.000000 0.000000 -16.597900
			CHANNELS 3 Xrotation Yrotation Zrotation
			JOINT RightFoot
			{
				OFFSET 0.000000 0.000000 -15.905310
				CHANNELS 3 Xrotation Zrotation Yrotation
				JOINT RightToeBase
				{
					OFFSET -0.000000 4.840540 -1.235990
					CHANNELS 3 Xrotation Yrotation Zrotation
					End Site
					{
						OFFSET -0.000000 3.526400 0.000000
					}
				}
			}
		}
	}
	JOINT LeftUpLeg
	{
		OFFSET -3.944550 -0.000000 0.000000
		CHANNELS 3 Xrotation Zrotation Yrotation
		JOINT LeftLeg
		{
			OFFSET 0.000000 0.000000 -16.597900
			CHANNELS 3 Xrotation Yrotation Zrotation
			JOINT LeftFoot
			{
				OFFSET 0.000000 0.000000 -15.905310
				CHANNELS 3 Xrotation Zrotation Yrotation
				JOINT LeftToeBase
				{
					OFFSET -0.000000 4.840540 -1.235990
					CHANNELS 3 Xrotation Yrotation Zrotation
					End Site
					{
						OFFSET -0.000000 3.438820 0.000000
					}
				}
			}
		}
	}
}
MOTION
Frames: 5
Frame Time: 0.033333
-0.823100 -10.899200 36.421900 0.870100 -2.619700 -3.071300 -1.346900 1.173800 -0.341200 -1.345900 1.199000 -0.237600 -0.344900 1.220600 1.289100 -0.344900 1.220600 1.289100 16.141800 -3.902300 -1.299700 5.926900 -4.273800 0.260100 -8.161800 -3.853500 3.690600 2.286800 -2.671500 0.106600 10.073000 -14.113300 56.842200 33.577600 -0.000000 8.662900 -0.249400 -4.734200 3.019500 -2.786000 -3.421800 -0.166400 9.506600 -1.894200 -44.738500 -24.432700 -0.000000 -5.595700 0.485400 3.057200 9.026300 2.525900 -20.229000 0.373000 -13.608500 0.000000 0.000000 -1.504200 -4.499300 19.189300 -0.457300 0.000000 0.000000 -0.548300 12.123700 -0.718500 -5.782400 0.000000 0.000000 3.483900 14.093300 2.180200 -6.069300 0.000000 0.000000
-0.906800 -10.982200 36.410500 1.034500 -2.264700 -3.034900 -1.554600 1.178600 -0.297500 -1.553600 1.200000 -0.193600 -0.392400 1.218100 1.339000 -0.392400 1.218100 1.339000 16.789700 -3.871800 -1.505000 6.276300 -4.253500 0.065300 -8.225700 -3.885100 3.516500 2.688600 -2.572200 0.120800 6.349000 -12.825300 61.227900 31.645300 -0.000000 7.645800 -0.331100 -4.606200 4.116200 -3.237100 -3.572000 -0.201900 7.542400 -4.501100 -48.041400 -23.698800 -0.000000 -6.461600 0.396800 2.653600 8.506900 3.407100 -19.051600 -0.717600 -15.652100 0.000000 0.000000 -0.468400 -2.532400 21.598900 0.005400 0.000000 -0.000000 -0.650800 11.848800 -0.906500 -5.637900 0.000000 0.000000 3.379300 13.987700 2.408000 -5.948000 0.000000 0.000000
-0.978700 -11.047000 36.405800 1.123500 -1.527000 -3.041000 -1.655900 1.133500 -0.189600 -1.654900 1.145700 -0.090000 -0.526500 1.155300 1.366900 -0.526500 1.155300 1.366900 17.354100 -3.881100 -1.696500 6.634600 -4.275500 -0.107500 -8.154300 -3.954600 3.388100 3.023000 -2.687900 0.141900 3.372200 -11.097900 65.087000 29.835400 -0.000000 7.280900 -0.392000 -4.606700 4.868900 -3.568900 -3.699000 -0.230500 6.230100 -7.515900 -51.013600 -23.580100 0.000000 -6.455700 0.363300 2.552600 8.102300 3.895300 -17.252000 -1.600900 -17.096100 0.000000 0.000000 0.223800 -0.995600 22.505000 0.427500 0.000000 -0.000000 -0.637200 11.447900 -1.017800 -5.589900 0.000000 0.000000 3.269000 13.658900 2.635600 -5.847400 0.000000 0.000000
-1.030400 -11.101900 36.411500 1.135100 -0.358900 -3.101600 -1.711200 1.065700 -0.021200 -1.710300 1.063500 0.071800 -0.673100 1.058600 1.337600 -0.673100 1.058600 1.337600 17.975900 -3.987500 -1.864600 7.044300 -4.406000 -0.216200 -8.041400 -4.105900 3.410500 3.075000 -2.890100 0.155200 0.740700 -9.926900 69.000100 28.889700 -0.000000 8.137300 -0.474700 -4.833800 5.615300 -3.812800 -3.939700 -0.262400 6.015500 -10.356800 -53.542100 -24.211100 0.000000 -6.905900 0.326100 2.453800 7.571400 3.954200 -15.941600 -2.250600 -17.949100 0.000000 0.000000 1.422300 -4.544000 20.411000 0.492100 0.000000 -0.000000 -0.520800 10.913700 -1.008600 -5.540500 0.000000 0.000000 3.121400 13.069800 2.737500 -5.873100 0.000000 0.000000
-1.064100 -11.131300 36.422000 1.058600 1.375000 -3.156100 -1.674700 0.937000 0.182500 -1.674100 0.917500 0.263400 -0.885300 0.895600 1.235400 -0.885300 0.895600 1.235400 18.763600 -4.179800 -1.960500 7.531400 -4.614400 -0.295100 -7.973900 -4.325500 3.424800 3.100600 -3.146300 0.170300 -1.950100 -8.614100 72.681500 28.990000 -0.000000 8.359200 -0.629000 -5.224200 6.875300 -4.138000 -4.336700 -0.313400 5.920000 -13.575200 -55.112500 -26.370300 0.000000 -7.416500 0.291100 2.215600 7.487200 3.578600 -16.570300 -3.050500 -17.878400 0.000000 0.000000 2.214900 -10.859900 17.617800 0.225300 0.000000 -0.000000 -0.375900 10.236400 -0.953300 -5.399900 0.000000 0.000000 2.912400 12.077600 2.678000 -5.748200 0.000000 0.000000
